<svg width="24" height="24" viewBox="0 0 24 24" fill="none" xmlns="http://www.w3.org/2000/svg">
<path fill-rule="evenodd" clip-rule="evenodd" d="M12.7503 4.79999C12.7503 4.38577 12.4145 4.04999 12.0003 4.04999C11.5861 4.04999 11.2503 4.38577 11.2503 4.79999V6.46612C10.5262 6.51319 9.77529 6.67161 9.1627 7.05317C8.51644 7.4557 8.05795 8.08893 7.95393 8.96471C7.87127 9.66068 7.94788 10.2752 8.1934 10.8052C8.43984 11.3372 8.82858 11.7237 9.26977 12.0078C10.1063 12.5464 11.2247 12.7659 12.1398 12.9455L12.1482 12.9472L12.2299 12.9632C12.6839 13.0522 13.0997 13.1337 13.4786 13.2361C13.8816 13.345 14.1916 13.4649 14.4162 13.6063C14.6298 13.7409 14.7415 13.8787 14.7987 14.0309C14.8586 14.1902 14.892 14.4544 14.7837 14.8968C14.702 15.2303 14.4743 15.4935 14.0451 15.6966C13.5993 15.9076 12.9874 16.0239 12.2868 16.0461C10.8675 16.091 9.37607 15.7453 8.74996 15.4153C8.38352 15.2222 7.92991 15.3627 7.7368 15.7291C7.54368 16.0956 7.68419 16.5492 8.05063 16.7423C8.76225 17.1173 9.98756 17.4251 11.2503 17.5198V19.2C11.2503 19.6142 11.5861 19.95 12.0003 19.95C12.4145 19.95 12.7503 19.6142 12.7503 19.2V17.5223C13.4267 17.468 14.1038 17.3284 14.6868 17.0524C15.4061 16.7119 16.0239 16.1387 16.2406 15.2535C16.3973 14.6135 16.399 14.0253 16.2028 13.5031C16.0038 12.9739 15.6349 12.6012 15.2156 12.3371C14.8072 12.0799 14.3322 11.913 13.87 11.7881C13.4379 11.6713 12.9724 11.5801 12.533 11.4941L12.4371 11.4752C11.4478 11.2811 10.6333 11.1016 10.0818 10.7466C9.82767 10.583 9.65777 10.3977 9.55445 10.1747C9.45021 9.94967 9.38592 9.62604 9.44346 9.14163C9.49024 8.74781 9.66986 8.50446 9.95573 8.32639C10.2744 8.12793 10.7483 8.00165 11.3502 7.96279C12.5518 7.88521 13.9797 8.17244 14.8752 8.47362C15.2678 8.60567 15.6931 8.39445 15.8251 8.00184C15.9572 7.60924 15.746 7.18393 15.3534 7.05188C14.6777 6.82464 13.7334 6.59977 12.7503 6.50149V4.79999Z" fill="#253D35"/>
</svg>
