<svg width="24" height="24" viewBox="0 0 24 24" fill="none" xmlns="http://www.w3.org/2000/svg">
<path fill-rule="evenodd" clip-rule="evenodd" d="M14.0768 5.07977C12.8624 4.80921 11.6086 4.96458 10.4787 5.5185C9.35123 6.07122 8.40746 6.99034 7.75146 8.14209C7.51569 8.55603 7.3201 8.99459 7.16626 9.44999H5.69995C5.28574 9.44999 4.94995 9.78578 4.94995 10.2C4.94995 10.6142 5.28574 10.95 5.69995 10.95H6.81918C6.77375 11.2965 6.75074 11.6475 6.75074 12C6.75074 12.3525 6.77375 12.7035 6.81918 13.05H5.69995C5.28574 13.05 4.94995 13.3858 4.94995 13.8C4.94995 14.2142 5.28574 14.55 5.69995 14.55H7.16626C7.32009 15.0054 7.51569 15.444 7.75146 15.8579C8.40746 17.0097 9.35124 17.9288 10.4787 18.4815C11.6086 19.0354 12.8624 19.1908 14.0768 18.9202C15.2893 18.6501 16.3885 17.9722 17.2444 16.9938C17.5172 16.6821 17.4855 16.2082 17.1738 15.9355C16.862 15.6628 16.3882 15.6944 16.1155 16.0062C15.4523 16.7642 14.6269 17.2609 13.7506 17.4561C12.876 17.651 11.9696 17.5419 11.139 17.1346C10.3058 16.7262 9.57586 16.0302 9.05487 15.1155C8.95111 14.9333 8.85679 14.7445 8.77227 14.55H12.9C13.3142 14.55 13.65 14.2142 13.65 13.8C13.65 13.3858 13.3142 13.05 12.9 13.05H8.33501C8.2793 12.7062 8.25074 12.3547 8.25074 12C8.25074 11.6453 8.2793 11.2938 8.33501 10.95H12.9C13.3142 10.95 13.65 10.6142 13.65 10.2C13.65 9.78578 13.3142 9.44999 12.9 9.44999H8.77228C8.85679 9.25551 8.95111 9.06664 9.05487 8.88447C9.57586 7.96976 10.3058 7.2738 11.139 6.86536C11.9696 6.45813 12.876 6.34903 13.7506 6.54387C14.6269 6.73912 15.4523 7.23578 16.1155 7.99382C16.3882 8.30557 16.862 8.33721 17.1738 8.06448C17.4855 7.79175 17.5172 7.31793 17.2444 7.00618C16.3885 6.02781 15.2893 5.34993 14.0768 5.07977Z" fill="#253D35"/>
</svg>
